<svg width="660" height="390" viewBox="0 0 660 390" xmlns="http://www.w3.org/2000/svg">
  <defs>
    <linearGradient id="g" x1="0%" y1="0%" x2="100%" y2="0%">
      <stop offset="0%" stop-color="#2563EB"/>
      <stop offset="100%" stop-color="#7C3AED"/>
    </linearGradient>
  </defs>

  <rect width="660" height="390" rx="6" fill="#f6f8fa" stroke="#d0d7de" stroke-width="1"/>

  <!-- HTML5 / CSS3 / SASS  92% -->
  <text x="20" y="36" font-family="ui-monospace,SFMono-Regular,'SF Mono',Menlo,Consolas,monospace" font-size="11" fill="#24292e">HTML5 / CSS3 / SASS</text>
  <rect x="250" y="24" width="350" height="12" rx="3" fill="#d0d7de"/>
  <rect x="250" y="24" width="322" height="12" rx="3" fill="url(#g)"/>
  <text x="614" y="36" font-family="ui-monospace,SFMono-Regular,'SF Mono',Menlo,Consolas,monospace" font-size="11" fill="#7C3AED" text-anchor="end">92%</text>

  <!-- JavaScript / TypeScript  90% -->
  <text x="20" y="64" font-family="ui-monospace,SFMono-Regular,'SF Mono',Menlo,Consolas,monospace" font-size="11" fill="#24292e">JavaScript / TypeScript</text>
  <rect x="250" y="52" width="350" height="12" rx="3" fill="#d0d7de"/>
  <rect x="250" y="52" width="315" height="12" rx="3" fill="url(#g)"/>
  <text x="614" y="64" font-family="ui-monospace,SFMono-Regular,'SF Mono',Menlo,Consolas,monospace" font-size="11" fill="#7C3AED" text-anchor="end">90%</text>

  <!-- Cyber Security  87% -->
  <text x="20" y="92" font-family="ui-monospace,SFMono-Regular,'SF Mono',Menlo,Consolas,monospace" font-size="11" fill="#24292e">Cyber Security</text>
  <rect x="250" y="80" width="350" height="12" rx="3" fill="#d0d7de"/>
  <rect x="250" y="80" width="305" height="12" rx="3" fill="url(#g)"/>
  <text x="614" y="92" font-family="ui-monospace,SFMono-Regular,'SF Mono',Menlo,Consolas,monospace" font-size="11" fill="#7C3AED" text-anchor="end">87%</text>

  <!-- Angular  85% -->
  <text x="20" y="120" font-family="ui-monospace,SFMono-Regular,'SF Mono',Menlo,Consolas,monospace" font-size="11" fill="#24292e">Angular</text>
  <rect x="250" y="108" width="350" height="12" rx="3" fill="#d0d7de"/>
  <rect x="250" y="108" width="298" height="12" rx="3" fill="url(#g)"/>
  <text x="614" y="120" font-family="ui-monospace,SFMono-Regular,'SF Mono',Menlo,Consolas,monospace" font-size="11" fill="#7C3AED" text-anchor="end">85%</text>

  <!-- Node.js  85% -->
  <text x="20" y="148" font-family="ui-monospace,SFMono-Regular,'SF Mono',Menlo,Consolas,monospace" font-size="11" fill="#24292e">Node.js</text>
  <rect x="250" y="136" width="350" height="12" rx="3" fill="#d0d7de"/>
  <rect x="250" y="136" width="298" height="12" rx="3" fill="url(#g)"/>
  <text x="614" y="148" font-family="ui-monospace,SFMono-Regular,'SF Mono',Menlo,Consolas,monospace" font-size="11" fill="#7C3AED" text-anchor="end">85%</text>

  <!-- Git / Version Control  85% -->
  <text x="20" y="176" font-family="ui-monospace,SFMono-Regular,'SF Mono',Menlo,Consolas,monospace" font-size="11" fill="#24292e">Git / Version Control</text>
  <rect x="250" y="164" width="350" height="12" rx="3" fill="#d0d7de"/>
  <rect x="250" y="164" width="298" height="12" rx="3" fill="url(#g)"/>
  <text x="614" y="176" font-family="ui-monospace,SFMono-Regular,'SF Mono',Menlo,Consolas,monospace" font-size="11" fill="#7C3AED" text-anchor="end">85%</text>

  <!-- PostgreSQL  80% -->
  <text x="20" y="204" font-family="ui-monospace,SFMono-Regular,'SF Mono',Menlo,Consolas,monospace" font-size="11" fill="#24292e">PostgreSQL</text>
  <rect x="250" y="192" width="350" height="12" rx="3" fill="#d0d7de"/>
  <rect x="250" y="192" width="280" height="12" rx="3" fill="url(#g)"/>
  <text x="614" y="204" font-family="ui-monospace,SFMono-Regular,'SF Mono',Menlo,Consolas,monospace" font-size="11" fill="#7C3AED" text-anchor="end">80%</text>

  <!-- Python  78% -->
  <text x="20" y="232" font-family="ui-monospace,SFMono-Regular,'SF Mono',Menlo,Consolas,monospace" font-size="11" fill="#24292e">Python</text>
  <rect x="250" y="220" width="350" height="12" rx="3" fill="#d0d7de"/>
  <rect x="250" y="220" width="273" height="12" rx="3" fill="url(#g)"/>
  <text x="614" y="232" font-family="ui-monospace,SFMono-Regular,'SF Mono',Menlo,Consolas,monospace" font-size="11" fill="#7C3AED" text-anchor="end">78%</text>

  <!-- TensorFlow / ML  73% -->
  <text x="20" y="260" font-family="ui-monospace,SFMono-Regular,'SF Mono',Menlo,Consolas,monospace" font-size="11" fill="#24292e">TensorFlow / ML</text>
  <rect x="250" y="248" width="350" height="12" rx="3" fill="#d0d7de"/>
  <rect x="250" y="248" width="256" height="12" rx="3" fill="url(#g)"/>
  <text x="614" y="260" font-family="ui-monospace,SFMono-Regular,'SF Mono',Menlo,Consolas,monospace" font-size="11" fill="#7C3AED" text-anchor="end">73%</text>

  <!-- React Native / Mobile  70% -->
  <text x="20" y="288" font-family="ui-monospace,SFMono-Regular,'SF Mono',Menlo,Consolas,monospace" font-size="11" fill="#24292e">React Native / Mobile</text>
  <rect x="250" y="276" width="350" height="12" rx="3" fill="#d0d7de"/>
  <rect x="250" y="276" width="245" height="12" rx="3" fill="url(#g)"/>
  <text x="614" y="288" font-family="ui-monospace,SFMono-Regular,'SF Mono',Menlo,Consolas,monospace" font-size="11" fill="#7C3AED" text-anchor="end">70%</text>

  <!-- AI / RAG / LLMs  65% -->
  <text x="20" y="316" font-family="ui-monospace,SFMono-Regular,'SF Mono',Menlo,Consolas,monospace" font-size="11" fill="#24292e">AI / RAG / LLMs</text>
  <rect x="250" y="304" width="350" height="12" rx="3" fill="#d0d7de"/>
  <rect x="250" y="304" width="228" height="12" rx="3" fill="url(#g)"/>
  <text x="614" y="316" font-family="ui-monospace,SFMono-Regular,'SF Mono',Menlo,Consolas,monospace" font-size="11" fill="#7C3AED" text-anchor="end">65%</text>

  <!-- PHP / C#  60% -->
  <text x="20" y="344" font-family="ui-monospace,SFMono-Regular,'SF Mono',Menlo,Consolas,monospace" font-size="11" fill="#24292e">PHP / C#</text>
  <rect x="250" y="332" width="350" height="12" rx="3" fill="#d0d7de"/>
  <rect x="250" y="332" width="210" height="12" rx="3" fill="url(#g)"/>
  <text x="614" y="344" font-family="ui-monospace,SFMono-Regular,'SF Mono',Menlo,Consolas,monospace" font-size="11" fill="#7C3AED" text-anchor="end">60%</text>

  <!-- AWS / DevOps / CI-CD  60% -->
  <text x="20" y="372" font-family="ui-monospace,SFMono-Regular,'SF Mono',Menlo,Consolas,monospace" font-size="11" fill="#24292e">AWS / DevOps / CI-CD</text>
  <rect x="250" y="360" width="350" height="12" rx="3" fill="#d0d7de"/>
  <rect x="250" y="360" width="210" height="12" rx="3" fill="url(#g)"/>
  <text x="614" y="372" font-family="ui-monospace,SFMono-Regular,'SF Mono',Menlo,Consolas,monospace" font-size="11" fill="#7C3AED" text-anchor="end">60%</text>

</svg>
