<svg width="660" height="414" viewBox="0 0 660 414" xmlns="http://www.w3.org/2000/svg">
  <defs>
    <linearGradient id="g" x1="0%" y1="0%" x2="100%" y2="0%">
      <stop offset="0%" stop-color="#2563EB"/>
      <stop offset="100%" stop-color="#7C3AED"/>
    </linearGradient>
  </defs>

  <rect width="660" height="414" rx="6" fill="#f6f8fa" stroke="#d0d7de" stroke-width="1"/>

  <!-- HTML5 / CSS3 / SASS  92% -->
  <text x="20" y="38" font-family="ui-monospace,SFMono-Regular,'SF Mono',Menlo,Consolas,monospace" font-size="13" fill="#24292e">HTML5 / CSS3 / SASS</text>
  <rect x="250" y="25" width="350" height="12" rx="3" fill="#d0d7de"/>
  <rect x="250" y="25" width="322" height="12" rx="3" fill="url(#g)"/>
  <text x="614" y="38" font-family="ui-monospace,SFMono-Regular,'SF Mono',Menlo,Consolas,monospace" font-size="13" fill="#7C3AED" text-anchor="end">92%</text>

  <!-- JavaScript / TypeScript  90% -->
  <text x="20" y="68" font-family="ui-monospace,SFMono-Regular,'SF Mono',Menlo,Consolas,monospace" font-size="13" fill="#24292e">JavaScript / TypeScript</text>
  <rect x="250" y="55" width="350" height="12" rx="3" fill="#d0d7de"/>
  <rect x="250" y="55" width="315" height="12" rx="3" fill="url(#g)"/>
  <text x="614" y="68" font-family="ui-monospace,SFMono-Regular,'SF Mono',Menlo,Consolas,monospace" font-size="13" fill="#7C3AED" text-anchor="end">90%</text>

  <!-- Cyber Security  87% -->
  <text x="20" y="98" font-family="ui-monospace,SFMono-Regular,'SF Mono',Menlo,Consolas,monospace" font-size="13" fill="#24292e">Cyber Security</text>
  <rect x="250" y="85" width="350" height="12" rx="3" fill="#d0d7de"/>
  <rect x="250" y="85" width="305" height="12" rx="3" fill="url(#g)"/>
  <text x="614" y="98" font-family="ui-monospace,SFMono-Regular,'SF Mono',Menlo,Consolas,monospace" font-size="13" fill="#7C3AED" text-anchor="end">87%</text>

  <!-- Angular  85% -->
  <text x="20" y="128" font-family="ui-monospace,SFMono-Regular,'SF Mono',Menlo,Consolas,monospace" font-size="13" fill="#24292e">Angular</text>
  <rect x="250" y="115" width="350" height="12" rx="3" fill="#d0d7de"/>
  <rect x="250" y="115" width="298" height="12" rx="3" fill="url(#g)"/>
  <text x="614" y="128" font-family="ui-monospace,SFMono-Regular,'SF Mono',Menlo,Consolas,monospace" font-size="13" fill="#7C3AED" text-anchor="end">85%</text>

  <!-- Node.js  85% -->
  <text x="20" y="158" font-family="ui-monospace,SFMono-Regular,'SF Mono',Menlo,Consolas,monospace" font-size="13" fill="#24292e">Node.js</text>
  <rect x="250" y="145" width="350" height="12" rx="3" fill="#d0d7de"/>
  <rect x="250" y="145" width="298" height="12" rx="3" fill="url(#g)"/>
  <text x="614" y="158" font-family="ui-monospace,SFMono-Regular,'SF Mono',Menlo,Consolas,monospace" font-size="13" fill="#7C3AED" text-anchor="end">85%</text>

  <!-- Git / Version Control  85% -->
  <text x="20" y="188" font-family="ui-monospace,SFMono-Regular,'SF Mono',Menlo,Consolas,monospace" font-size="13" fill="#24292e">Git / Version Control</text>
  <rect x="250" y="175" width="350" height="12" rx="3" fill="#d0d7de"/>
  <rect x="250" y="175" width="298" height="12" rx="3" fill="url(#g)"/>
  <text x="614" y="188" font-family="ui-monospace,SFMono-Regular,'SF Mono',Menlo,Consolas,monospace" font-size="13" fill="#7C3AED" text-anchor="end">85%</text>

  <!-- PostgreSQL  80% -->
  <text x="20" y="218" font-family="ui-monospace,SFMono-Regular,'SF Mono',Menlo,Consolas,monospace" font-size="13" fill="#24292e">PostgreSQL</text>
  <rect x="250" y="205" width="350" height="12" rx="3" fill="#d0d7de"/>
  <rect x="250" y="205" width="280" height="12" rx="3" fill="url(#g)"/>
  <text x="614" y="218" font-family="ui-monospace,SFMono-Regular,'SF Mono',Menlo,Consolas,monospace" font-size="13" fill="#7C3AED" text-anchor="end">80%</text>

  <!-- Python  78% -->
  <text x="20" y="248" font-family="ui-monospace,SFMono-Regular,'SF Mono',Menlo,Consolas,monospace" font-size="13" fill="#24292e">Python</text>
  <rect x="250" y="235" width="350" height="12" rx="3" fill="#d0d7de"/>
  <rect x="250" y="235" width="273" height="12" rx="3" fill="url(#g)"/>
  <text x="614" y="248" font-family="ui-monospace,SFMono-Regular,'SF Mono',Menlo,Consolas,monospace" font-size="13" fill="#7C3AED" text-anchor="end">78%</text>

  <!-- TensorFlow / ML  73% -->
  <text x="20" y="278" font-family="ui-monospace,SFMono-Regular,'SF Mono',Menlo,Consolas,monospace" font-size="13" fill="#24292e">TensorFlow / ML</text>
  <rect x="250" y="265" width="350" height="12" rx="3" fill="#d0d7de"/>
  <rect x="250" y="265" width="256" height="12" rx="3" fill="url(#g)"/>
  <text x="614" y="278" font-family="ui-monospace,SFMono-Regular,'SF Mono',Menlo,Consolas,monospace" font-size="13" fill="#7C3AED" text-anchor="end">73%</text>

  <!-- React Native / Mobile  70% -->
  <text x="20" y="308" font-family="ui-monospace,SFMono-Regular,'SF Mono',Menlo,Consolas,monospace" font-size="13" fill="#24292e">React Native / Mobile</text>
  <rect x="250" y="295" width="350" height="12" rx="3" fill="#d0d7de"/>
  <rect x="250" y="295" width="245" height="12" rx="3" fill="url(#g)"/>
  <text x="614" y="308" font-family="ui-monospace,SFMono-Regular,'SF Mono',Menlo,Consolas,monospace" font-size="13" fill="#7C3AED" text-anchor="end">70%</text>

  <!-- AI / RAG / LLMs  65% -->
  <text x="20" y="338" font-family="ui-monospace,SFMono-Regular,'SF Mono',Menlo,Consolas,monospace" font-size="13" fill="#24292e">AI / RAG / LLMs</text>
  <rect x="250" y="325" width="350" height="12" rx="3" fill="#d0d7de"/>
  <rect x="250" y="325" width="228" height="12" rx="3" fill="url(#g)"/>
  <text x="614" y="338" font-family="ui-monospace,SFMono-Regular,'SF Mono',Menlo,Consolas,monospace" font-size="13" fill="#7C3AED" text-anchor="end">65%</text>

  <!-- PHP / C#  60% -->
  <text x="20" y="368" font-family="ui-monospace,SFMono-Regular,'SF Mono',Menlo,Consolas,monospace" font-size="13" fill="#24292e">PHP / C#</text>
  <rect x="250" y="355" width="350" height="12" rx="3" fill="#d0d7de"/>
  <rect x="250" y="355" width="210" height="12" rx="3" fill="url(#g)"/>
  <text x="614" y="368" font-family="ui-monospace,SFMono-Regular,'SF Mono',Menlo,Consolas,monospace" font-size="13" fill="#7C3AED" text-anchor="end">60%</text>

  <!-- AWS / DevOps / CI-CD  60% -->
  <text x="20" y="398" font-family="ui-monospace,SFMono-Regular,'SF Mono',Menlo,Consolas,monospace" font-size="13" fill="#24292e">AWS / DevOps / CI-CD</text>
  <rect x="250" y="385" width="350" height="12" rx="3" fill="#d0d7de"/>
  <rect x="250" y="385" width="210" height="12" rx="3" fill="url(#g)"/>
  <text x="614" y="398" font-family="ui-monospace,SFMono-Regular,'SF Mono',Menlo,Consolas,monospace" font-size="13" fill="#7C3AED" text-anchor="end">60%</text>

</svg>
