<svg width="660" height="414" viewBox="0 0 660 414" xmlns="http://www.w3.org/2000/svg" font-family="-apple-system,BlinkMacSystemFont,'Segoe UI',Helvetica,Arial,sans-serif">
  <defs>
    <linearGradient id="g" x1="0%" y1="0%" x2="100%" y2="0%">
      <stop offset="0%" stop-color="#2563EB"/>
      <stop offset="100%" stop-color="#7C3AED"/>
    </linearGradient>
  </defs>

  <rect width="660" height="414" rx="6" fill="#f6f8fa" stroke="#d0d7de" stroke-width="1"/>

  <!-- HTML5 / CSS3 / SASS  92% -->
  <text x="20" y="40" font-size="16" fill="#24292e">HTML5 / CSS3 / SASS</text>
  <rect x="270" y="27" width="330" height="14" rx="4" fill="#d0d7de"/>
  <rect x="270" y="27" width="304" height="14" rx="4" fill="url(#g)"/>
  <text x="640" y="40" font-size="16" fill="#7C3AED" text-anchor="end">92%</text>

  <!-- JavaScript / TypeScript  90% -->
  <text x="20" y="70" font-size="16" fill="#24292e">JavaScript / TypeScript</text>
  <rect x="270" y="57" width="330" height="14" rx="4" fill="#d0d7de"/>
  <rect x="270" y="57" width="297" height="14" rx="4" fill="url(#g)"/>
  <text x="640" y="70" font-size="16" fill="#7C3AED" text-anchor="end">90%</text>

  <!-- Cyber Security  87% -->
  <text x="20" y="100" font-size="16" fill="#24292e">Cyber Security</text>
  <rect x="270" y="87" width="330" height="14" rx="4" fill="#d0d7de"/>
  <rect x="270" y="87" width="287" height="14" rx="4" fill="url(#g)"/>
  <text x="640" y="100" font-size="16" fill="#7C3AED" text-anchor="end">87%</text>

  <!-- Angular  85% -->
  <text x="20" y="130" font-size="16" fill="#24292e">Angular</text>
  <rect x="270" y="117" width="330" height="14" rx="4" fill="#d0d7de"/>
  <rect x="270" y="117" width="281" height="14" rx="4" fill="url(#g)"/>
  <text x="640" y="130" font-size="16" fill="#7C3AED" text-anchor="end">85%</text>

  <!-- Node.js  85% -->
  <text x="20" y="160" font-size="16" fill="#24292e">Node.js</text>
  <rect x="270" y="147" width="330" height="14" rx="4" fill="#d0d7de"/>
  <rect x="270" y="147" width="281" height="14" rx="4" fill="url(#g)"/>
  <text x="640" y="160" font-size="16" fill="#7C3AED" text-anchor="end">85%</text>

  <!-- Git / Version Control  85% -->
  <text x="20" y="190" font-size="16" fill="#24292e">Git / Version Control</text>
  <rect x="270" y="177" width="330" height="14" rx="4" fill="#d0d7de"/>
  <rect x="270" y="177" width="281" height="14" rx="4" fill="url(#g)"/>
  <text x="640" y="190" font-size="16" fill="#7C3AED" text-anchor="end">85%</text>

  <!-- PostgreSQL  80% -->
  <text x="20" y="220" font-size="16" fill="#24292e">PostgreSQL</text>
  <rect x="270" y="207" width="330" height="14" rx="4" fill="#d0d7de"/>
  <rect x="270" y="207" width="264" height="14" rx="4" fill="url(#g)"/>
  <text x="640" y="220" font-size="16" fill="#7C3AED" text-anchor="end">80%</text>

  <!-- Python  78% -->
  <text x="20" y="250" font-size="16" fill="#24292e">Python</text>
  <rect x="270" y="237" width="330" height="14" rx="4" fill="#d0d7de"/>
  <rect x="270" y="237" width="257" height="14" rx="4" fill="url(#g)"/>
  <text x="640" y="250" font-size="16" fill="#7C3AED" text-anchor="end">78%</text>

  <!-- TensorFlow / ML  73% -->
  <text x="20" y="280" font-size="16" fill="#24292e">TensorFlow / ML</text>
  <rect x="270" y="267" width="330" height="14" rx="4" fill="#d0d7de"/>
  <rect x="270" y="267" width="241" height="14" rx="4" fill="url(#g)"/>
  <text x="640" y="280" font-size="16" fill="#7C3AED" text-anchor="end">73%</text>

  <!-- React Native / Mobile  70% -->
  <text x="20" y="310" font-size="16" fill="#24292e">React Native / Mobile</text>
  <rect x="270" y="297" width="330" height="14" rx="4" fill="#d0d7de"/>
  <rect x="270" y="297" width="231" height="14" rx="4" fill="url(#g)"/>
  <text x="640" y="310" font-size="16" fill="#7C3AED" text-anchor="end">70%</text>

  <!-- AI / RAG / LLMs  65% -->
  <text x="20" y="340" font-size="16" fill="#24292e">AI / RAG / LLMs</text>
  <rect x="270" y="327" width="330" height="14" rx="4" fill="#d0d7de"/>
  <rect x="270" y="327" width="215" height="14" rx="4" fill="url(#g)"/>
  <text x="640" y="340" font-size="16" fill="#7C3AED" text-anchor="end">65%</text>

  <!-- PHP / C#  60% -->
  <text x="20" y="370" font-size="16" fill="#24292e">PHP / C#</text>
  <rect x="270" y="357" width="330" height="14" rx="4" fill="#d0d7de"/>
  <rect x="270" y="357" width="198" height="14" rx="4" fill="url(#g)"/>
  <text x="640" y="370" font-size="16" fill="#7C3AED" text-anchor="end">60%</text>

  <!-- AWS / DevOps / CI-CD  60% -->
  <text x="20" y="400" font-size="16" fill="#24292e">AWS / DevOps / CI-CD</text>
  <rect x="270" y="387" width="330" height="14" rx="4" fill="#d0d7de"/>
  <rect x="270" y="387" width="198" height="14" rx="4" fill="url(#g)"/>
  <text x="640" y="400" font-size="16" fill="#7C3AED" text-anchor="end">60%</text>

</svg>
